<svg viewBox="0 0 25 25" fill="none" xmlns="http://www.w3.org/2000/svg">
<g>
<path class="clock" d="M11.9526 24.0947C17.4973 24.0947 21.9921 19.5998 21.9921 14.0552C21.9921 8.51047 17.4973 4.01562 11.9526 4.01562C6.40793 4.01562 1.91309 8.51047 1.91309 14.0552C1.91309 19.5998 6.40793 24.0947 11.9526 24.0947Z" stroke-width="2.00791" stroke-linecap="round" stroke-linejoin="round"/>
<path class="clock" d="M11.9528 7.5293V15.0589L8.94092 18.0708" stroke-width="2.00791" stroke-linecap="round" stroke-linejoin="round"/>
<circle cx="19.9843" cy="8.03144" r="5.01581" stroke-width="2"/>
<path class="bang" fill-rule="evenodd" clip-rule="evenodd" d="M19.3424 4.55078H20.6262C20.782 4.55078 20.9049 4.72407 20.8912 4.92476L20.6255 9.05381C20.6144 9.23274 20.4989 9.36975 20.3611 9.36975H19.6081C19.4697 9.36975 19.3548 9.23274 19.3431 9.05381L19.0774 4.92476C19.0643 4.72407 19.1866 4.55078 19.3424 4.55078Z" />
<path class="bang" fill-rule="evenodd" clip-rule="evenodd" d="M19.5514 9.90527H20.4177C20.5962 9.90527 20.7407 10.0587 20.7407 10.249V11.1678C20.7407 11.3582 20.5962 11.5116 20.4177 11.5116H19.5514C19.3728 11.5116 19.2275 11.3582 19.2275 11.1678V10.249C19.2275 10.0587 19.3728 9.90527 19.5514 9.90527Z" />
</g>
</svg>
