<svg xmlns="http://www.w3.org/2000/svg" width="20" height="20" viewBox="0 0 20 20" fill="none">
  <path d="M9.70645 1.94875C9.79687 1.9006 9.89775 1.87542 10.0002 1.87542C10.1026 1.87542 10.2035 1.9006 10.2939 1.94875L19.6689 6.94875C19.7688 7.0021 19.8523 7.08156 19.9105 7.17864C19.9687 7.27573 19.9994 7.38681 19.9994 7.5C19.9994 7.6132 19.9687 7.72427 19.9105 7.82136C19.8523 7.91845 19.7688 7.99791 19.6689 8.05125L10.2939 13.0513C10.2035 13.0994 10.1026 13.1246 10.0002 13.1246C9.89775 13.1246 9.79687 13.0994 9.70645 13.0513L0.331446 8.05125C0.231605 7.99791 0.148127 7.91845 0.089923 7.82136C0.0317195 7.72427 0.000976562 7.6132 0.000976562 7.5C0.000976562 7.38681 0.0317195 7.27573 0.089923 7.17864C0.148127 7.08156 0.231605 7.0021 0.331446 6.94875L9.70645 1.94875Z" fill="#141524"/>
  <path d="M2.65645 10.7087L0.331446 11.9487C0.231605 12.0021 0.148127 12.0816 0.089923 12.1786C0.0317195 12.2757 0.000976562 12.3868 0.000976562 12.5C0.000976562 12.6132 0.0317195 12.7243 0.089923 12.8214C0.148127 12.9184 0.231605 12.9979 0.331446 13.0512L9.70645 18.0512C9.79687 18.0994 9.89775 18.1246 10.0002 18.1246C10.1026 18.1246 10.2035 18.0994 10.2939 18.0512L19.6689 13.0512C19.7688 12.9979 19.8523 12.9184 19.9105 12.8214C19.9687 12.7243 19.9994 12.6132 19.9994 12.5C19.9994 12.3868 19.9687 12.2757 19.9105 12.1786C19.8523 12.0816 19.7688 12.0021 19.6689 11.9487L17.3439 10.7087L10.8814 14.1537C10.6102 14.2982 10.3075 14.3737 10.0002 14.3737C9.69286 14.3737 9.39023 14.2982 9.11895 14.1537L2.65645 10.7087Z" fill="#141524"/>
</svg>
