<svg width="24" height="26" viewBox="0 -1 24 26"  xmlns="http://www.w3.org/2000/svg">
<path fill-rule="evenodd" clip-rule="evenodd" d="M23.57 0.178037C23.3 -0.0119631 22.95 -0.0519632 22.65 0.0680368L15.98 2.60804L8.32 0.0480368C8.1 -0.0219632 7.86 -0.0119632 7.65 0.0680368L0.64 2.72804C0.26 2.87804 0 3.24804 0 3.66804V17.668C0 17.998 0.16 18.308 0.43 18.488C0.7 18.678 1.05 18.718 1.36 18.598L8.02 16.058L8.24 16.138H8.25L10.11 16.758C10.38 16.548 10.55 16.218 10.55 15.848C10.55 15.608 10.48 15.398 10.36 15.208L8.99 14.748L8.73 14.658V1.62804L15.19 3.83804V6.19804C15.4 6.40804 15.68 6.52804 16 6.52804C16.3 6.52804 16.57 6.41804 16.78 6.21804V3.83804L22.72 1.62804V8.67804C22.91 8.79804 23.12 8.86804 23.36 8.86804C23.6 8.86804 23.81 8.79804 24 8.67804V0.998037C24 0.668037 23.84 0.368037 23.57 0.178037ZM7.36 14.828L1.64 17.018V3.77804L7.36 1.62804V14.828Z"/>
<path fill-rule="evenodd" clip-rule="evenodd" d="M20.4598 16.988C21.2598 16.328 21.8698 15.428 22.1698 14.348C22.9198 11.588 21.2798 8.74804 18.5298 8.00804C15.7698 7.25804 12.9298 8.88804 12.1898 11.648C11.4398 14.408 13.0698 17.248 15.8298 17.988C16.9398 18.288 18.0598 18.198 19.0598 17.808L22.5498 23.998L23.9698 23.198L20.4598 16.988ZM17.2398 16.778C15.1698 16.778 13.4898 15.098 13.4898 13.028C13.4898 10.958 15.1698 9.27804 17.2398 9.27804C19.3098 9.27804 20.9898 10.958 20.9898 13.028C20.9898 15.098 19.3098 16.778 17.2398 16.778Z"/>
</svg>
