<svg width="21" height="25" viewBox="0 0 21 25" fill="none" xmlns="http://www.w3.org/2000/svg">
<path d="M20 10.4091C20 17.7273 10.5 24 10.5 24C10.5 24 1 17.7273 1 10.4091C1 7.91364 2.00089 5.52041 3.78249 3.75586C5.56408 1.99131 7.98044 1 10.5 1C13.0196 1 15.4359 1.99131 17.2175 3.75586C18.9991 5.52041 20 7.91364 20 10.4091Z" fill="#FFC72C" stroke="#98800B" stroke-linecap="round" stroke-linejoin="round"/>
<path d="M5 7.36803V14C5 14.5523 5.44772 15 6 15H15C15.5523 15 16 14.5523 16 14V7.36803C16 6.98926 15.786 6.643 15.4472 6.47361L10.9472 4.22361C10.6657 4.08284 10.3343 4.08284 10.0528 4.22361L5.55279 6.47361C5.214 6.643 5 6.98926 5 7.36803Z" fill="white" stroke="#222534"/>
<path d="M8 15V10C8 9.44772 8.44772 9 9 9H12C12.5523 9 13 9.44772 13 10V15" stroke="#222534"/>
<path d="M8 12L13 12" stroke="#222534"/>
</svg>
