<svg viewBox="0 0 25 25" fill="none" xmlns="http://www.w3.org/2000/svg"><path d="M23.112 14.444l-5.325-1.777" stroke-width="1.75"/><path d="M24 20L20.9 1.376c-.045-.275-.439-.28-.491-.006l-3.066 15.963M5.805 24L3.292 2.192c-.02-.177-.278-.177-.298 0L.924 20.445M20.45 1.333l-17.308.89m1.775 15.555L1.811 16" stroke-width="1.75" stroke-linecap="round"/><path d="M14.237 2.222l-.222 14.222M9.355 16.222l-.444-14" stroke-width=".75" stroke-linecap="round"/><path d="M14.314 15.759l.144.082c.396.227.599.685.5 1.13l-.063.282a1.434 1.434 0 01-1.197 1.11l-2.963.424c-.46.066-.928-.04-1.315-.299l-.06-.04a1.731 1.731 0 01-.76-1.25l-.071-.647a.796.796 0 011.201-.77l.608.365c.083.05.15.122.192.208a.506.506 0 00.504.278l1.435-.144a.874.874 0 00.662-.42.874.874 0 011.183-.31z"/></svg>
