<svg viewBox="0 0 16 16" xmlns="http://www.w3.org/2000/svg">
    <path
        d="M2.49952 7.99926C2.49937 7.03373 2.75339 6.08518 3.23606 5.24896C3.71872 4.41273 4.41302 3.7183 5.24915 3.23547C6.08528 2.75264 7.03378 2.49843 7.99931 2.4984C8.96483 2.49836 9.91335 2.75249 10.7495 3.23526C10.8643 3.30052 11.0002 3.31773 11.1277 3.28313C11.2551 3.24854 11.3636 3.16495 11.4297 3.0506C11.4957 2.93626 11.5138 2.80045 11.48 2.6728C11.4463 2.54515 11.3634 2.43603 11.2495 2.36926C10.0104 1.65384 8.5698 1.36728 7.1512 1.55402C5.73261 1.74076 4.41526 2.39036 3.40347 3.40208C2.39169 4.4138 1.742 5.7311 1.55517 7.14969C1.36834 8.56828 1.65481 10.0089 2.37015 11.2481C3.08549 12.4872 4.18972 13.4558 5.5116 14.0034C6.83347 14.5511 8.29912 14.6473 9.68124 14.2771C11.0634 13.9069 12.2847 13.091 13.1559 11.956C14.027 10.8209 14.4993 9.43009 14.4995 7.99926C14.4995 7.86665 14.4468 7.73947 14.3531 7.6457C14.2593 7.55194 14.1321 7.49926 13.9995 7.49926C13.8669 7.49926 13.7397 7.55194 13.646 7.6457C13.5522 7.73947 13.4995 7.86665 13.4995 7.99926C13.4995 9.45795 12.9201 10.8569 11.8886 11.8883C10.8572 12.9198 9.45821 13.4993 7.99952 13.4993C6.54083 13.4993 5.14188 12.9198 4.11043 11.8883C3.07898 10.8569 2.49952 9.45795 2.49952 7.99926Z"
        fill="#103F4A" />
    <path
        d="M15.3535 3.35326C15.4 3.30677 15.4369 3.25158 15.462 3.19084C15.4872 3.1301 15.5002 3.065 15.5002 2.99926C15.5002 2.93351 15.4872 2.86841 15.462 2.80767C15.4369 2.74693 15.4 2.69174 15.3535 2.64526C15.307 2.59877 15.2518 2.56189 15.1911 2.53673C15.1304 2.51157 15.0653 2.49863 14.9995 2.49863C14.9338 2.49863 14.8687 2.51157 14.8079 2.53673C14.7472 2.56189 14.692 2.59877 14.6455 2.64526L7.99952 9.29226L5.35352 6.64526C5.30703 6.59877 5.25184 6.56189 5.1911 6.53673C5.13036 6.51157 5.06526 6.49863 4.99952 6.49863C4.93378 6.49863 4.86868 6.51157 4.80794 6.53673C4.7472 6.56189 4.69201 6.59877 4.64552 6.64526C4.59903 6.69174 4.56216 6.74693 4.537 6.80767C4.51184 6.86841 4.49889 6.93351 4.49889 6.99926C4.49889 7.065 4.51184 7.1301 4.537 7.19084C4.56216 7.25158 4.59903 7.30677 4.64552 7.35326L7.64552 10.3533C7.69197 10.3998 7.74714 10.4368 7.80789 10.462C7.86863 10.4872 7.93375 10.5002 7.99952 10.5002C8.06529 10.5002 8.13041 10.4872 8.19115 10.462C8.2519 10.4368 8.30708 10.3998 8.35352 10.3533L15.3535 3.35326Z"
        fill="#103F4A" />
</svg>
