<svg xmlns="http://www.w3.org/2000/svg" viewBox="0 0 16 16"><path fill="#1c1e23" d="M15.85 14.179 9.004.645A1.202 1.202 0 0 0 8.58.178a1.028 1.028 0 0 0-1.157 0 1.19 1.19 0 0 0-.417.467L.159 14.179a1.238 1.238 0 0 0 0 1.214 1.158 1.158 0 0 0 .417.44 1.073 1.073 0 0 0 .57.167H14.85a1.054 1.054 0 0 0 .563-.166 1.158 1.158 0 0 0 .417-.441 1.238 1.238 0 0 0 .019-1.214z"/><g fill="#fff"><path d="M6.965 5.02h2.07a.428.428 0 0 1 .426.465l-.428 5.123a.428.428 0 0 1-.427.392H7.394a.428.428 0 0 1-.427-.392L6.54 5.485a.428.428 0 0 1 .426-.464z"/><rect width="2" height="2" x="7" y="12" rx=".428"/></g></svg>