<svg viewBox="0 0 195 195" fill="none" xmlns="http://www.w3.org/2000/svg">
<circle cx="97.5" cy="97.5" r="93.21" fill="white"/>
<path fill-rule="evenodd" clip-rule="evenodd" d="M97.5 195C151.348 195 195 151.348 195 97.5C195 43.6522 151.348 0 97.5 0C43.6522 0 0 43.6522 0 97.5C0 151.348 43.6522 195 97.5 195ZM97.5 186.42C146.609 186.42 186.42 146.609 186.42 97.5C186.42 48.3908 146.609 8.57996 97.5 8.57996C48.3908 8.57996 8.57996 48.3908 8.57996 97.5C8.57996 146.609 48.3908 186.42 97.5 186.42ZM35.8801 54.0148H159.12V85.0198H113.1V160.875H82.095V85.0198H35.8801V54.0148Z" fill="black"/>
</svg>
