<svg viewBox="0 0 15 13" xmlns="http://www.w3.org/2000/svg">
    <g stroke="none" stroke-width="1" fill="none" fill-rule="evenodd">
        <g transform="translate(0.000000, -3.000000)" fill="#8B8D91" stroke="#F2F3F5">
            <g transform="translate(0.000000, 3.000000)">
                <path d="M7.10869283,1.02102616 C7.6118947,0.929970586 8.15191856,1.0424049 8.59474145,1.38258089 L8.59474145,1.38258089 L13.7915479,8.7200987 C14.0881953,9.14782291 14.1833897,9.65529463 14.0974911,10.1299972 C14.0115926,10.6046997 13.7446011,11.046633 13.3168769,11.3432805 C13.0013755,11.562096 12.6265764,11.6793468 12.2426215,11.6793468 L12.2426215,11.6793468 L2.64605031,11.6793468 C2.12552394,11.6793468 1.65427576,11.4683618 1.31315917,11.1272452 C0.972042577,10.7861286 0.761057579,10.3148805 0.761057579,9.79435409 C0.761057579,9.41039921 0.878308438,9.0356001 1.09712393,8.7200987 L1.09712393,8.7200987 L5.89540953,1.80164039 C6.19205696,1.37391618 6.6339903,1.10692472 7.10869283,1.02102616 Z"></path>
            </g>
        </g>
    </g>
</svg>
