<svg width="23" height="22" viewBox="0 0 23 22" fill="none" xmlns="http://www.w3.org/2000/svg">
<path fill-rule="evenodd" clip-rule="evenodd" d="M1.875 7.90625C1.875 4.30513 4.80513 1.375 8.40625 1.375C12.0074 1.375 14.9375 4.30513 14.9375 7.90625C14.9375 11.5078 12.0074 14.4375 8.40625 14.4375C4.80513 14.4375 1.875 11.5078 1.875 7.90625ZM22.5 20.2473L14.8477 12.48C15.7666 11.1884 16.3125 9.61263 16.3125 7.90625C16.3125 3.53971 12.7723 0 8.40625 0C4.03971 0 0.5 3.53971 0.5 7.90625C0.5 12.2728 4.03971 15.8125 8.40625 15.8125C10.1644 15.8125 11.7832 15.2313 13.0959 14.2606L20.7212 22L22.5 20.2473Z" fill="#3C3F4C"/>
</svg>
