<svg width="22" height="22" viewBox="0 0 14 22" fill="none" xmlns="http://www.w3.org/2000/svg">
<path d="M12 0C10.8954 0 10 0.895431 10 2C10 2.74028 10.4022 3.38663 11 3.73244V9.26756C10.4022 9.61337 10 10.2597 10 11C10 11.7403 10.4022 12.3866 11 12.7324V18.2676C10.4022 18.6134 10 19.2597 10 20C10 21.1046 10.8954 22 12 22C13.1046 22 14 21.1046 14 20C14 19.2597 13.5978 18.6134 13 18.2676V12.7324C13.5978 12.3866 14 11.7403 14 11C14 10.2597 13.5978 9.61337 13 9.26756V3.73244C13.5978 3.38663 14 2.74028 14 2C14 0.895431 13.1046 0 12 0Z" fill="#260F54"/>
<path d="M3 18.2676C3.5978 18.6134 4 19.2597 4 20C4 21.1046 3.10457 22 2 22C0.895431 22 0 21.1046 0 20C0 19.2597 0.402199 18.6134 1 18.2676V12.7324C0.402199 12.3866 0 11.7403 0 11C0 10.2597 0.402199 9.61337 1 9.26756V3.73244C0.402199 3.38663 0 2.74028 0 2C0 0.895431 0.895431 0 2 0C3.10457 0 4 0.895431 4 2C4 2.74028 3.5978 3.38663 3 3.73244V9.26756C3.5978 9.61337 4 10.2597 4 11C4 11.7403 3.5978 12.3866 3 12.7324V18.2676Z" fill="#260F54"/>
</svg>
