<svg width="21" height="21" xmlns="http://www.w3.org/2000/svg"><path d="M13.714 10.286a3.435 3.435 0 0 0-3.428-3.429 3.435 3.435 0 0 0-3.429 3.429 3.435 3.435 0 0 0 3.429 3.428 3.435 3.435 0 0 0 3.428-3.428Zm6.857-1.46v2.973c0 .201-.16.442-.375.482l-2.477.375c-.148.429-.308.83-.523 1.219.456.656.938 1.246 1.433 1.848.08.094.134.215.134.335 0 .12-.04.214-.12.308-.322.429-2.13 2.397-2.585 2.397a.681.681 0 0 1-.348-.12l-1.848-1.447c-.389.201-.804.375-1.22.51-.093.816-.173 1.687-.388 2.49a.49.49 0 0 1-.482.375H8.8c-.241 0-.455-.174-.482-.401l-.375-2.465a7.864 7.864 0 0 1-1.205-.495l-1.889 1.433a.514.514 0 0 1-.335.12.48.48 0 0 1-.334-.147c-.71-.643-1.648-1.473-2.21-2.25a.521.521 0 0 1 .013-.616c.456-.616.951-1.205 1.406-1.835a7.105 7.105 0 0 1-.549-1.326l-2.45-.361A.489.489 0 0 1 0 11.746V8.772c0-.2.16-.442.362-.482l2.49-.375c.135-.428.309-.83.523-1.232a32.352 32.352 0 0 0-1.433-1.848.494.494 0 0 1-.134-.322.52.52 0 0 1 .12-.308c.322-.442 2.13-2.397 2.585-2.397.12 0 .241.054.349.134L6.71 3.375c.388-.2.803-.375 1.219-.509.093-.817.174-1.687.388-2.491A.49.49 0 0 1 8.799 0h2.973c.241 0 .456.174.482.402l.375 2.464c.416.134.817.295 1.206.496l1.902-1.433c.08-.08.2-.121.321-.121.12 0 .241.054.335.134.71.656 1.647 1.487 2.21 2.277.067.08.093.187.093.294 0 .12-.04.215-.107.308-.455.617-.95 1.206-1.406 1.835.228.429.415.87.55 1.313l2.45.375c.228.04.388.254.388.482Z"/></svg>