<svg width="18" height="16" viewBox="0 0 18 16" fill="none" xmlns="http://www.w3.org/2000/svg">
<path d="M13 3.75C13.5967 3.75 14.1689 3.98722 14.5908 4.40918C15.0128 4.83114 15.25 5.40326 15.25 6V6.25H15.75V6.26953C16.1216 6.32321 16.4687 6.49407 16.7373 6.7627C17.0655 7.09088 17.25 7.53587 17.25 8C17.25 8.46413 17.0655 8.90912 16.7373 9.2373C16.4687 9.5059 16.1216 9.67579 15.75 9.72949V9.75H15.25V10C15.25 10.5967 15.0128 11.1689 14.5908 11.5908C14.1689 12.0128 13.5967 12.25 13 12.25H3C2.40326 12.25 1.83114 12.0128 1.40918 11.5908C0.987223 11.1689 0.75 10.5967 0.75 10V6L0.760742 5.77734C0.811932 5.26236 1.04003 4.77833 1.40918 4.40918C1.83114 3.98722 2.40326 3.75 3 3.75H13Z" fill="white" stroke="#F1F2F3" stroke-width="0.5"/>
<path d="M3 6H8.80482V10H3V6Z" fill="#00843D"/>
<path d="M3 4C2.46957 4 1.96086 4.21071 1.58579 4.58579C1.21071 4.96086 1 5.46957 1 6V10C1 10.5304 1.21071 11.0391 1.58579 11.4142C1.96086 11.7893 2.46957 12 3 12H13C13.5304 12 14.0391 11.7893 14.4142 11.4142C14.7893 11.0391 15 10.5304 15 10V6C15 5.46957 14.7893 4.96086 14.4142 4.58579C14.0391 4.21071 13.5304 4 13 4H3ZM13 5C13.2652 5 13.5196 5.10536 13.7071 5.29289C13.8946 5.48043 14 5.73478 14 6V10C14 10.2652 13.8946 10.5196 13.7071 10.7071C13.5196 10.8946 13.2652 11 13 11H3C2.73478 11 2.48043 10.8946 2.29289 10.7071C2.10536 10.5196 2 10.2652 2 10V6C2 5.73478 2.10536 5.48043 2.29289 5.29289C2.48043 5.10536 2.73478 5 3 5H13ZM17 8C17 8.39782 16.842 8.77936 16.5607 9.06066C16.2794 9.34196 15.8978 9.5 15.5 9.5V6.5C15.8978 6.5 16.2794 6.65804 16.5607 6.93934C16.842 7.22064 17 7.60218 17 8Z" fill="#00843D"/>
</svg>
