<svg viewBox="0 0 40 22" width="40" height="22" fill="none" xmlns="http://www.w3.org/2000/svg"><path fill-rule="evenodd" clip-rule="evenodd" d="m24.57 21.137-5.626-7.555-1.848 2.013v5.542h-2.41V0h2.41v12.426h.286l6.37-7.142h2.982l-6.167 6.75 6.82 9.103H24.57ZM12.006 8.835l-2.164.619a8.073 8.073 0 0 0-.454-.898c-.208-.365-.535-.692-.98-.98-.446-.29-1.07-.434-1.874-.434-.96 0-1.758.229-2.394.686-.636.458-.955 1.027-.955 1.708 0 .537.218 1.027.654 1.471.435.444 1.102.78 2 1.006l2.329.578c1.429.351 2.46.907 3.093 1.667s.95 1.595.95 2.503c0 .812-.228 1.576-.684 2.291-.457.716-1.127 1.297-2.012 1.744-.885.448-1.974.671-3.267.671-1.252 0-2.294-.196-3.124-.588-.83-.392-1.494-.895-1.99-1.507A7.2 7.2 0 0 1 0 17.462l2.205-.825a5.02 5.02 0 0 0 1.343 1.904c.609.547 1.495.82 2.66.82 1.122 0 1.995-.254 2.618-.763.623-.51.934-1.094.934-1.755 0-1.045-.748-1.747-2.246-2.105l-2.613-.66c-1.43-.372-2.475-.959-3.135-1.76-.66-.802-.99-1.688-.99-2.658 0-.894.25-1.686.75-2.374.5-.688 1.185-1.228 2.052-1.62.868-.392 1.853-.588 2.956-.588 1.45 0 2.622.337 3.517 1.011.895.675 1.547 1.59 1.955 2.746ZM38.336 19.1c.463-.726.695-1.596.695-2.608 0-.948-.222-1.767-.667-2.456a4.547 4.547 0 0 0-1.794-1.607A3.876 3.876 0 0 0 38.1 11c.376-.614.563-1.354.563-2.221 0-.959-.211-1.766-.635-2.423a3.965 3.965 0 0 0-1.746-1.486c-.74-.334-1.582-.501-2.524-.501-.943 0-1.788.167-2.533.5a4.008 4.008 0 0 0-1.762 1.487c-.429.657-.643 1.464-.643 2.423 0 .861.186 1.6.559 2.213a3.906 3.906 0 0 0 1.526 1.438 4.449 4.449 0 0 0-1.79 1.603c-.442.692-.663 1.512-.663 2.46 0 1.017.236 1.89.707 2.617a4.625 4.625 0 0 0 1.914 1.672c.804.387 1.704.581 2.7.581.986 0 1.877-.195 2.673-.586a4.587 4.587 0 0 0 1.89-1.676ZM36.274 8.884c0-.722-.249-1.302-.747-1.74-.498-.44-1.101-.659-1.81-.659-.665 0-1.249.207-1.75.622-.5.415-.75.999-.75 1.753 0 .754.251 1.366.755 1.837a2.545 2.545 0 0 0 1.801.707c.682 0 1.27-.234 1.762-.703.493-.468.74-1.074.74-1.817Zm-.088 6.017c.256.447.384.948.384 1.503 0 .802-.265 1.48-.795 2.035-.53.555-1.197.832-2.002.832a2.84 2.84 0 0 1-1.462-.384 2.853 2.853 0 0 1-1.422-2.508 2.94 2.94 0 0 1 1.402-2.54 2.688 2.688 0 0 1 1.427-.392c.521 0 1 .131 1.434.392.434.261.779.615 1.034 1.062Z" fill="#1A083F"/></svg>