<svg width="20" height="20" viewBox="0 0 20 20" fill="none" xmlns="http://www.w3.org/2000/svg">
<circle cx="10" cy="10" r="10" fill="#4DB6AC"/>
<path d="M4.09082 12.8059C4.09082 13.3546 4.33014 13.8471 4.70446 14.19V15.2998C4.70446 15.6427 4.98059 15.9233 5.31809 15.9233H5.93173C6.26923 15.9233 6.54537 15.6427 6.54537 15.2998V15.2998C6.54537 14.9555 6.82451 14.6763 7.16885 14.6763H10.831C11.1753 14.6763 11.4545 14.9555 11.4545 15.2998V15.2998C11.4545 15.6427 11.7306 15.9233 12.0681 15.9233H12.6817C13.0192 15.9233 13.2954 15.6427 13.2954 15.2998V14.19C13.6697 13.8471 13.909 13.3546 13.909 12.8059V6.57108C13.909 4.38889 11.7122 4.07715 8.99991 4.07715C6.28764 4.07715 4.09082 4.38889 4.09082 6.57108V12.8059ZM12.0681 8.68848C12.0681 9.24077 11.6204 9.68848 11.0681 9.68848H6.93173C6.37944 9.68848 5.93173 9.24077 5.93173 8.68848V7.57108C5.93173 7.01879 6.37944 6.57108 6.93173 6.57108H11.0681C11.6204 6.57108 12.0681 7.01879 12.0681 7.57108V8.68848Z" stroke="white"/>
<path d="M5.19238 12.5546C5.19238 13.0846 5.61758 13.5125 6.14431 13.5125C6.67104 13.5125 7.09623 13.0846 7.09623 12.5546C7.09623 12.0245 6.67104 11.5967 6.14431 11.5967C5.61758 11.5967 5.19238 12.0245 5.19238 12.5546Z" fill="white"/>
<path d="M10.9039 12.5546C10.9039 13.0846 11.3291 13.5125 11.8558 13.5125C12.3826 13.5125 12.8078 13.0846 12.8078 12.5546C12.8078 12.0245 12.3826 11.5967 11.8558 11.5967C11.3291 11.5967 10.9039 12.0245 10.9039 12.5546Z" fill="white"/>
<path fill-rule="evenodd" clip-rule="evenodd" d="M16.266 7H17.5497C17.7056 7 17.8285 7.17329 17.8148 7.37398L17.5491 11.503C17.5379 11.682 17.4225 11.819 17.2847 11.819H16.5317C16.3933 11.819 16.2784 11.682 16.2666 11.503L16.001 7.37398C15.9879 7.17329 16.1102 7 16.266 7Z" fill="white"/>
<path fill-rule="evenodd" clip-rule="evenodd" d="M16.4749 12.3545H17.3413C17.5198 12.3545 17.6643 12.5079 17.6643 12.6982V13.6171C17.6643 13.8074 17.5198 13.9608 17.3413 13.9608H16.4749C16.2964 13.9608 16.1511 13.8074 16.1511 13.6171V12.6982C16.1511 12.5079 16.2964 12.3545 16.4749 12.3545Z" fill="white"/>
</svg>
