<svg width="19" height="19" fill="none" xmlns="http://www.w3.org/2000/svg"><circle cx="9.5" cy="9.5" r="8.5" fill="#E7FF36" stroke="#C8E70C" stroke-width=".75"/><path fill-rule="evenodd" clip-rule="evenodd" d="M4.4 7.876c0-2.54 2.322-4.61 5.178-4.61 2.853 0 5.175 2.07 5.156 4.61V13.7a.826.826 0 0 1-.344.672.85.85 0 0 1-.752.121.325.325 0 0 1-.079-.034l-1.474-.885-2.338 1.322a.365.365 0 0 1-.358 0l-2.34-1.322-1.474.886a.324.324 0 0 1-.08.033.834.834 0 0 1-.749-.12.822.822 0 0 1-.346-.673V7.876zm9.58 5.9a.123.123 0 0 0 .05-.096V7.876c0-2.142-1.996-3.882-4.453-3.882-2.458 0-4.456 1.745-4.456 3.882v5.81c0 .039.019.075.05.098.022.015.05.023.078.022l1.617-.97a.372.372 0 0 1 .366-.005l2.345 1.324 2.342-1.327a.365.365 0 0 1 .366 0l1.617.97a.131.131 0 0 0 .078-.021z" fill="#213F03" stroke="#213F03" stroke-width=".5"/><circle cx="8.8" cy="8.8" r="1" fill="#213F03"/><circle cx="12.2" cy="8.8" r="1" fill="#213F03"/></svg>