<svg viewBox="0 0 16 16" xmlns="http://www.w3.org/2000/svg">
    <path
        d="M7.99902 -0.0012207C10.1208 -0.0012207 12.156 0.842238 13.6562 2.34253C15.1564 3.84271 15.9989 5.87722 15.999 7.99878C15.999 10.1205 15.1565 12.1557 13.6562 13.656C12.156 15.1563 10.1208 15.9988 7.99902 15.9988C5.87747 15.9987 3.84295 15.1562 2.34277 13.656C0.842482 12.1557 -0.000976562 10.1205 -0.000976562 7.99878C-0.000850392 5.87722 0.842595 3.84271 2.34277 2.34253C3.84295 0.842351 5.87746 -0.00109453 7.99902 -0.0012207ZM7.99902 0.998779C6.14268 0.998905 4.36245 1.73692 3.0498 3.04956C1.73716 4.3622 0.99915 6.14244 0.999023 7.99878C0.999023 9.8553 1.73705 11.6362 3.0498 12.949C4.36245 14.2616 6.14269 14.9987 7.99902 14.9988C9.85554 14.9988 11.6365 14.2617 12.9492 12.949C14.262 11.6362 14.999 9.8553 14.999 7.99878C14.9989 6.14244 14.2619 4.3622 12.9492 3.04956C11.6365 1.73681 9.85554 0.998779 7.99902 0.998779ZM7.92871 11.2927C7.85788 11.6324 7.95759 11.8249 8.23242 11.825C8.42642 11.825 8.71895 11.7549 8.91895 11.5789L8.83008 11.9949C8.54308 12.3409 7.91023 12.5935 7.36523 12.5935C6.66242 12.5934 6.36364 12.1711 6.55762 11.2742L7.2959 7.8064C7.35987 7.51352 7.30148 7.40765 7.00781 7.33765L6.55762 7.25464L6.63965 6.87378L8.92969 6.58765L7.92871 11.2927ZM7.99902 3.49878C8.26424 3.49878 8.5195 3.60421 8.70703 3.79175C8.89445 3.97917 8.9989 4.23374 8.99902 4.49878C8.99902 4.764 8.89457 5.01925 8.70703 5.20679C8.5195 5.39432 8.26424 5.49878 7.99902 5.49878C7.73398 5.49865 7.47941 5.3942 7.29199 5.20679C7.10446 5.01925 6.99902 4.764 6.99902 4.49878C6.99915 4.23373 7.10457 3.97917 7.29199 3.79175C7.47942 3.60432 7.73398 3.49891 7.99902 3.49878Z"
        fill="#494B4E" />
</svg>
