<svg width="12" height="14" viewBox="0 0 12 14" fill="none" xmlns="http://www.w3.org/2000/svg">
<path d="M0.86377 11.1261H0.863591L0.863948 11.1395C0.871848 11.4354 1.01799 11.7089 1.25624 11.8814C1.49408 12.0536 1.79785 12.1067 2.07966 12.0271L2.14295 12.0092L2.19946 11.9755L3.49104 11.2063L5.57332 12.3913L5.8199 12.5316L6.06683 12.3919L8.14721 11.2149L9.4395 11.9845L9.49601 12.0181L9.55929 12.036C9.84111 12.1157 10.1449 12.0625 10.3827 11.8903C10.621 11.7179 10.7671 11.4444 10.775 11.1485L10.7752 11.1485V11.1351V5.76532C10.7752 3.25802 8.49066 1.33899 5.82062 1.33899C3.15092 1.33899 0.86377 3.25771 0.86377 5.76532V8.65674V11.1261Z" fill="white" stroke="#372815"/>
<path fill-rule="evenodd" clip-rule="evenodd" d="M1.02955 5.76531C1.02955 3.4149 3.17838 1.5 5.82066 1.5C8.46066 1.5 10.6095 3.4149 10.5913 5.76531V11.1531C10.5922 11.3986 10.474 11.6297 10.2735 11.7749C10.0729 11.9201 9.81407 11.9618 9.57714 11.8871C9.55157 11.8799 9.52709 11.8694 9.50438 11.8557L8.14004 11.0363L5.97756 12.2598C5.92692 12.288 5.86971 12.3027 5.81156 12.3024C5.75335 12.3033 5.69599 12.2885 5.64557 12.2598L3.48081 11.0363L2.11647 11.8557C2.09376 11.8694 2.06928 11.8799 2.04371 11.8871C1.80778 11.9631 1.54916 11.9213 1.35017 11.7749C1.14796 11.6308 1.02858 11.3993 1.02955 11.1531V5.76531ZM9.89548 11.2249C9.92384 11.2035 9.94061 11.1703 9.94096 11.1351V5.76531C9.94096 3.78306 8.09455 2.17347 5.82065 2.17347C3.54675 2.17347 1.69807 3.78755 1.69807 5.76531V11.1418C1.69842 11.1771 1.7152 11.2102 1.74355 11.2316C1.76498 11.2459 1.79049 11.253 1.81631 11.2518L3.31254 10.3539C3.36486 10.3232 3.42452 10.307 3.48536 10.3067C3.54353 10.3062 3.6008 10.321 3.65135 10.3494L5.82065 11.5751L7.98768 10.3471C8.09225 10.2864 8.22192 10.2864 8.32649 10.3471L9.82272 11.2451C9.84854 11.2462 9.87405 11.2392 9.89548 11.2249Z" fill="#372815"/>
<ellipse cx="4.80423" cy="6.61837" rx="0.707183" ry="0.680204" fill="#372815"/>
<ellipse cx="8.34244" cy="6.61837" rx="0.707184" ry="0.680204" fill="#372815"/>
</svg>
