<svg width="19" height="19" fill="none" xmlns="http://www.w3.org/2000/svg"><circle cx="9.5" cy="9.5" r="8.5" fill="#E7FF36" stroke="#C8E70C" stroke-width=".708"/><path d="M9.5 9.5a.944.944 0 1 1-1.89 0 .944.944 0 0 1 1.89 0zM12.71 9.5a.944.944 0 1 1-1.888 0 .944.944 0 0 1 1.889 0z" fill="#213F03"/><path d="M9.51 3.833c-2.61 0-4.732 2.009-4.732 4.475v5.652a.814.814 0 0 0 .317.653.726.726 0 0 0 .685.118.284.284 0 0 0 .071-.033l1.348-.86 2.138 1.284c.05.03.107.045.164.044a.318.318 0 0 0 .164-.044l2.136-1.284 1.348.86a.284.284 0 0 0 .072.033.74.74 0 0 0 .687-.118.82.82 0 0 0 .314-.653V8.308c.018-2.466-2.104-4.475-4.712-4.475z" stroke="#213F03" stroke-width="1.181"/></svg>