<svg viewBox="0 0 24 24" fill="none" xmlns="http://www.w3.org/2000/svg"><path clip-rule="evenodd" d="M15.664 12A3.671 3.671 0 0 0 12 8.336 3.671 3.671 0 0 0 8.336 12 3.671 3.671 0 0 0 12 15.664 3.671 3.671 0 0 0 15.664 12Zm7.327-1.56v3.177c0 .215-.171.473-.4.516l-2.648.4c-.158.458-.33.888-.558 1.303.486.701 1.002 1.33 1.531 1.975.086.1.143.229.143.358a.478.478 0 0 1-.129.329c-.343.458-2.275 2.562-2.762 2.562a.729.729 0 0 1-.372-.129l-1.975-1.546c-.415.215-.859.401-1.302.544-.1.873-.187 1.803-.415 2.662a.524.524 0 0 1-.516.4h-3.177c-.258 0-.487-.185-.515-.428l-.401-2.634a8.4 8.4 0 0 1-1.288-.53l-2.018 1.532a.55.55 0 0 1-.358.129.512.512 0 0 1-.358-.158c-.758-.687-1.76-1.574-2.361-2.404a.557.557 0 0 1 .014-.659c.487-.658 1.016-1.288 1.503-1.96a7.593 7.593 0 0 1-.587-1.417l-2.62-.387a.522.522 0 0 1-.414-.515v-3.177c0-.215.172-.472.386-.515l2.662-.401c.143-.458.33-.888.558-1.317a34.582 34.582 0 0 0-1.53-1.975.528.528 0 0 1-.144-.343c0-.13.057-.23.129-.33C3.412 5.03 5.344 2.94 5.83 2.94c.129 0 .258.058.372.144l1.975 1.531c.415-.215.859-.4 1.303-.544.1-.873.186-1.803.415-2.662a.524.524 0 0 1 .515-.4h3.177c.258 0 .487.185.516.429l.4 2.633c.444.143.873.315 1.288.53l2.033-1.532a.488.488 0 0 1 .343-.129c.129 0 .258.058.358.144.759.7 1.76 1.588 2.361 2.433.072.086.1.2.1.315a.54.54 0 0 1-.114.329c-.486.658-1.016 1.288-1.503 1.96.244.458.444.93.587 1.403l2.62.4a.522.522 0 0 1 .414.516Z"/></svg>