<svg viewBox="0 0 48 48" xmlns="http://www.w3.org/2000/svg"><path d="m37.28 26.67a2.68 2.68 0 1 1 1.92-.77 2.73 2.73 0 0 1 -1.92.77zm-26.65 0a2.67 2.67 0 1 1 2.7-2.67 2.65 2.65 0 0 1 -.8 1.89 2.69 2.69 0 0 1 -1.9.78zm26.65 8a2.68 2.68 0 1 1 1.92-.77 2.73 2.73 0 0 1 -1.92.77zm-26.65 0a2.67 2.67 0 1 1 2.7-2.67 2.65 2.65 0 0 1 -.8 1.89 2.69 2.69 0 0 1 -1.9.78zm6.59-32h16.22a1.21 1.21 0 0 1 1.06.66 1.44 1.44 0 0 1 0 1.34 1.21 1.21 0 0 1 -1.06.66h-16.22a1.28 1.28 0 0 1 -1.22-1.33 1.28 1.28 0 0 1 1.22-1.33zm25.45 19-1.82-14.61c-.46-2.64-2.08-3.67-4.49-4.74a37.75 37.75 0 0 0 -12.36-2.32 38.17 38.17 0 0 0 -12.35 2.32c-2.38 1.05-4 2.1-4.49 4.74l-1.83 14.6v20.2h3.2v3.52a2.63 2.63 0 0 0 5.26 0v-3.52h20.51v3.52a2.63 2.63 0 0 0 5.26 0v-3.52h3.11z" fill-rule="evenodd"/></svg>