<svg width="18" height="16" viewBox="0 0 18 16" fill="none" xmlns="http://www.w3.org/2000/svg">
<path d="M13 3.75C13.5967 3.75 14.1689 3.98722 14.5908 4.40918C15.0128 4.83114 15.25 5.40326 15.25 6V6.25H15.75V6.26953C16.1216 6.32321 16.4687 6.49407 16.7373 6.7627C17.0655 7.09088 17.25 7.53587 17.25 8C17.25 8.46413 17.0655 8.90912 16.7373 9.2373C16.4687 9.5059 16.1216 9.67579 15.75 9.72949V9.75H15.25V10C15.25 10.5967 15.0128 11.1689 14.5908 11.5908C14.1689 12.0128 13.5967 12.25 13 12.25H3C2.40326 12.25 1.83114 12.0128 1.40918 11.5908C0.987223 11.1689 0.75 10.5967 0.75 10V6L0.760742 5.77734C0.811932 5.26236 1.04003 4.77833 1.40918 4.40918C1.83114 3.98722 2.40326 3.75 3 3.75H13Z" fill="white" stroke="#F1F2F3" stroke-width="0.5"/>
<path d="M1 6C1 5.46957 1.21071 4.96086 1.58579 4.58579C1.96086 4.21071 2.46957 4 3 4H13C13.5304 4 14.0391 4.21071 14.4142 4.58579C14.7893 4.96086 15 5.46957 15 6V10C15 10.5304 14.7893 11.0391 14.4142 11.4142C14.0391 11.7893 13.5304 12 13 12H3C2.46957 12 1.96086 11.7893 1.58579 11.4142C1.21071 11.0391 1 10.5304 1 10V6ZM3 5C2.73478 5 2.48043 5.10536 2.29289 5.29289C2.10536 5.48043 2 5.73478 2 6V10C2 10.2652 2.10536 10.5196 2.29289 10.7071C2.48043 10.8946 2.73478 11 3 11H13C13.2652 11 13.5196 10.8946 13.7071 10.7071C13.8946 10.5196 14 10.2652 14 10V6C14 5.73478 13.8946 5.48043 13.7071 5.29289C13.5196 5.10536 13.2652 5 13 5H3ZM17 8C17 8.39782 16.842 8.77936 16.5607 9.06066C16.2794 9.34196 15.8978 9.5 15.5 9.5V6.5C15.8978 6.5 16.2794 6.65804 16.5607 6.93934C16.842 7.22064 17 7.60218 17 8Z" fill="#DA291C"/>
<mask id="path-3-outside-1_344_3664" maskUnits="userSpaceOnUse" x="5.9823" y="5.20923" width="4" height="6" fill="black">
<rect fill="white" x="5.9823" y="5.20923" width="4" height="6"/>
<path d="M6.65409 10.2092V5.84559H9.38988V6.41235H7.31247V7.7419H9.24713V8.30653H7.31247V9.64247H9.41545V10.2092H6.65409Z"/>
</mask>
<path d="M6.65409 10.2092V5.84559H9.38988V6.41235H7.31247V7.7419H9.24713V8.30653H7.31247V9.64247H9.41545V10.2092H6.65409Z" fill="#E8002A"/>
<path d="M6.65409 10.2092H6.15409V10.7092H6.65409V10.2092ZM6.65409 5.84559V5.34559H6.15409V5.84559H6.65409ZM9.38988 5.84559H9.88988V5.34559H9.38988V5.84559ZM9.38988 6.41235V6.91235H9.88988V6.41235H9.38988ZM7.31247 6.41235V5.91235H6.81247V6.41235H7.31247ZM7.31247 7.7419H6.81247V8.2419H7.31247V7.7419ZM9.24713 7.7419H9.74713V7.2419H9.24713V7.7419ZM9.24713 8.30653V8.80653H9.74713V8.30653H9.24713ZM7.31247 8.30653V7.80653H6.81247V8.30653H7.31247ZM7.31247 9.64247H6.81247V10.1425H7.31247V9.64247ZM9.41545 9.64247H9.91545V9.14247H9.41545V9.64247ZM9.41545 10.2092V10.7092H9.91545V10.2092H9.41545ZM6.65409 10.2092H7.15409V5.84559H6.65409H6.15409V10.2092H6.65409ZM6.65409 5.84559V6.34559H9.38988V5.84559V5.34559H6.65409V5.84559ZM9.38988 5.84559H8.88988V6.41235H9.38988H9.88988V5.84559H9.38988ZM9.38988 6.41235V5.91235H7.31247V6.41235V6.91235H9.38988V6.41235ZM7.31247 6.41235H6.81247V7.7419H7.31247H7.81247V6.41235H7.31247ZM7.31247 7.7419V8.2419H9.24713V7.7419V7.2419H7.31247V7.7419ZM9.24713 7.7419H8.74713V8.30653H9.24713H9.74713V7.7419H9.24713ZM9.24713 8.30653V7.80653H7.31247V8.30653V8.80653H9.24713V8.30653ZM7.31247 8.30653H6.81247V9.64247H7.31247H7.81247V8.30653H7.31247ZM7.31247 9.64247V10.1425H9.41545V9.64247V9.14247H7.31247V9.64247ZM9.41545 9.64247H8.91545V10.2092H9.41545H9.91545V9.64247H9.41545ZM9.41545 10.2092V9.70923H6.65409V10.2092V10.7092H9.41545V10.2092Z" fill="white" mask="url(#path-3-outside-1_344_3664)"/>
</svg>
