<svg viewBox="0 0 18 18" fill="none" xmlns="http://www.w3.org/2000/svg">
<circle r="7.94141" transform="matrix(-1 0 0 1 9 9)" fill="#1C1E23" stroke="#1C1E23"/>
<path fill-rule="evenodd" clip-rule="evenodd" d="M10.1066 3H7.89358C7.62497 3 7.41309 3.29873 7.43663 3.6447L7.89465 10.7628C7.91391 11.0712 8.11295 11.3074 8.35052 11.3074H9.64858C9.88722 11.3074 10.0852 11.0712 10.1055 10.7628L10.5635 3.6447C10.586 3.29873 10.3752 3 10.1066 3Z" fill="white"/>
<path fill-rule="evenodd" clip-rule="evenodd" d="M9.74595 12.2314H8.25252C7.9447 12.2314 7.69558 12.4959 7.69558 12.824V14.408C7.69558 14.7361 7.9447 15.0006 8.25252 15.0006H9.74595C10.0538 15.0006 10.3042 14.7361 10.3042 14.408V12.824C10.3042 12.4959 10.0538 12.2314 9.74595 12.2314Z" fill="white"/>
</svg>
