<svg width="16" height="16" viewBox="0 0 16 16" fill="none" xmlns="http://www.w3.org/2000/svg">
<g clip-path="url(#clip0_9_200089)">
<path d="M8 16C8.53043 16 9.03914 15.7893 9.41421 15.4142C9.78929 15.0391 10 14.5304 10 14H6C6 14.5304 6.21071 15.0391 6.58579 15.4142C6.96086 15.7893 7.46957 16 8 16ZM8.995 1.09899C9.00896 0.959944 8.99362 0.819516 8.94997 0.686763C8.90632 0.55401 8.83533 0.43188 8.74158 0.328248C8.64783 0.224616 8.5334 0.141784 8.40567 0.0850945C8.27794 0.0284045 8.13974 -0.00088501 8 -0.00088501C7.86026 -0.00088501 7.72206 0.0284045 7.59433 0.0850945C7.4666 0.141784 7.35217 0.224616 7.25842 0.328248C7.16467 0.43188 7.09368 0.55401 7.05003 0.686763C7.00638 0.819516 6.99104 0.959944 7.005 1.09899C5.87472 1.32889 4.85862 1.94235 4.12876 2.83549C3.39891 3.72863 3.00015 4.84656 3 5.99999C3 7.09799 2.5 12 1 13H15C13.5 12 13 7.09799 13 5.99999C13 3.57999 11.28 1.55999 8.995 1.09899Z" fill="#212529"/>
</g>
<defs>
<clipPath id="clip0_9_200089">
<rect width="16" height="16" fill="white"/>
</clipPath>
</defs>
</svg>
