<svg xmlns="http://www.w3.org/2000/svg" viewBox="0 0 17.71 17.71"><defs><style>.cls-3{fill:#213f03}</style></defs><g id="Layer_2" data-name="Layer 2"><g id="Layer_1-2" data-name="Layer 1"><circle cx="8.85" cy="8.85" r="8.5" style="fill:#e7ff36"/><path d="M8.85 17.71a8.86 8.86 0 1 1 8.86-8.86 8.86 8.86 0 0 1-8.86 8.86zm0-17A8.15 8.15 0 1 0 17 8.85 8.15 8.15 0 0 0 8.85.71z" style="fill:#c8e70c"/><path class="cls-3" d="M8.85 8.85a.95.95 0 1 1-.94-.94.94.94 0 0 1 .94.94zM12.06 8.85a.94.94 0 1 1-.94-.94.94.94 0 0 1 .94.94z"/><path class="cls-3" d="M8.83 15.11a.83.83 0 0 1-.44-.11l-1.83-1.11-1.25.76a1.29 1.29 0 0 1-1.22-.22 1.41 1.41 0 0 1-.55-1.12V7.66A5.2 5.2 0 0 1 8.86 2.6a5.44 5.44 0 0 1 3.86 1.58 4.9 4.9 0 0 1 1.45 3.49v5.64a1.46 1.46 0 0 1-.55 1.13 1.32 1.32 0 0 1-1.23.2l-.21-.09-1-.66L9.32 15a.82.82 0 0 1-.47.13zM6.54 12.5l2.31 1.39 2.31-1.39 1.66 1.05.08-.05a.25.25 0 0 0 .09-.19V7.66A3.72 3.72 0 0 0 11.88 5a4.27 4.27 0 0 0-3-1.23 4 4 0 0 0-4.16 3.89v5.65a.22.22 0 0 0 .09.19.16.16 0 0 0 .13 0z"/></g></g></svg>